<?xml version="1.0" encoding="UTF-8"?><svg id="_Слой_1" xmlns="http://www.w3.org/2000/svg" viewBox="0 0 229.36 86.96"><defs><style>.cls-1{fill:#fff;}</style></defs><path class="cls-1" d="M5.12,58.48c3.12,1.92,7.68,3.52,12.48,3.52,7.12,0,11.28-3.76,11.28-9.2,0-5.04-2.88-7.92-10.16-10.72-8.8-3.12-14.24-7.68-14.24-15.28,0-8.4,6.96-14.64,17.44-14.64,5.52,0,9.52,1.28,11.92,2.64l-1.92,5.68c-1.76-.96-5.36-2.56-10.24-2.56-7.36,0-10.16,4.4-10.16,8.08,0,5.04,3.28,7.52,10.72,10.4,9.12,3.52,13.76,7.92,13.76,15.84,0,8.32-6.16,15.52-18.88,15.52-5.2,0-10.88-1.52-13.76-3.44l1.76-5.84Z"/><path class="cls-1" d="M53.12,17.36c.08,2.4-1.68,4.32-4.48,4.32-2.48,0-4.24-1.92-4.24-4.32s1.84-4.4,4.4-4.4,4.32,1.92,4.32,4.4Zm-7.84,49.6V28.24h7.04v38.72h-7.04Z"/><path class="cls-1" d="M64,38.72c0-4-.08-7.28-.32-10.48h6.16l.32,6.24h.24c2.16-3.68,5.76-7.12,12.16-7.12,5.28,0,9.28,3.2,10.96,7.76h.16c1.2-2.16,2.72-3.84,4.32-5.04,2.32-1.76,4.88-2.72,8.56-2.72,5.12,0,12.72,3.36,12.72,16.8v22.8h-6.88v-21.92c0-7.44-2.72-11.92-8.4-11.92-4,0-7.12,2.96-8.32,6.4-.32,.96-.56,2.24-.56,3.52v23.92h-6.88v-23.2c0-6.16-2.72-10.64-8.08-10.64-4.4,0-7.6,3.52-8.72,7.04-.4,1.04-.56,2.24-.56,3.44v23.36h-6.88v-28.24Z"/><path class="cls-1" d="M130.72,40.88c0-4.96-.16-8.96-.32-12.64h6.32l.32,6.64h.16c2.88-4.72,7.44-7.52,13.76-7.52,9.36,0,16.4,7.92,16.4,19.68,0,13.92-8.48,20.8-17.6,20.8-5.12,0-9.6-2.24-11.92-6.08h-.16v21.04h-6.96V40.88Zm6.96,10.32c0,1.04,.16,2,.32,2.88,1.28,4.88,5.52,8.24,10.56,8.24,7.44,0,11.76-6.08,11.76-14.96,0-7.76-4.08-14.4-11.52-14.4-4.8,0-9.28,3.44-10.64,8.72-.24,.88-.48,1.92-.48,2.88v6.64Z"/><path class="cls-1" d="M176.24,10.16h7.04v56.8h-7.04V10.16Z"/><path class="cls-1" d="M199.04,48.88c.16,9.52,6.24,13.44,13.28,13.44,5.04,0,8.08-.88,10.72-2l1.2,5.04c-2.48,1.12-6.72,2.4-12.88,2.4-11.92,0-19.04-7.84-19.04-19.52s6.88-20.88,18.16-20.88c12.64,0,16,11.12,16,18.24,0,1.44-.16,2.56-.24,3.28h-27.2Zm20.64-5.04c.08-4.48-1.84-11.44-9.76-11.44-7.12,0-10.24,6.56-10.8,11.44h20.56Z"/></svg>